<mxfile host="65bd71144e">
    <diagram id="-oTuEOJoojHcPu5xCkU9" name="Page-1">
        <mxGraphModel dx="2637" dy="1132" grid="1" gridSize="10" guides="1" tooltips="1" connect="1" arrows="1" fold="1" page="1" pageScale="1" pageWidth="827" pageHeight="1169" math="0" shadow="0">
            <root>
                <mxCell id="0"/>
                <mxCell id="1" parent="0"/>
                <mxCell id="HO9OGigF0msemIeN-Rik-3" value="" style="edgeStyle=orthogonalEdgeStyle;rounded=0;orthogonalLoop=1;jettySize=auto;html=1;" parent="1" source="HO9OGigF0msemIeN-Rik-1" target="HO9OGigF0msemIeN-Rik-2" edge="1">
                    <mxGeometry relative="1" as="geometry"/>
                </mxCell>
                <mxCell id="HO9OGigF0msemIeN-Rik-1" value="Login" style="whiteSpace=wrap;html=1;aspect=fixed;" parent="1" vertex="1">
                    <mxGeometry x="230" y="150" width="130" height="130" as="geometry"/>
                </mxCell>
                <mxCell id="HO9OGigF0msemIeN-Rik-4" style="edgeStyle=orthogonalEdgeStyle;rounded=0;orthogonalLoop=1;jettySize=auto;html=1;" parent="1" source="HO9OGigF0msemIeN-Rik-2" edge="1">
                    <mxGeometry relative="1" as="geometry">
                        <mxPoint x="295" y="600" as="targetPoint"/>
                    </mxGeometry>
                </mxCell>
                <mxCell id="HO9OGigF0msemIeN-Rik-2" value="MakeLocalSaveAccessToken" style="whiteSpace=wrap;html=1;aspect=fixed;" parent="1" vertex="1">
                    <mxGeometry x="210" y="370" width="170" height="170" as="geometry"/>
                </mxCell>
                <mxCell id="HO9OGigF0msemIeN-Rik-14" value="&lt;div style=&quot;color: rgb(216 , 222 , 233) ; background-color: rgb(46 , 52 , 64) ; font-family: &amp;#34;fira code&amp;#34; , &amp;#34;menlo&amp;#34; , &amp;#34;monaco&amp;#34; , &amp;#34;courier new&amp;#34; , monospace ; font-size: 14px ; line-height: 21px&quot;&gt;&lt;span style=&quot;color: #88c0d0&quot;&gt;makeLocalStorageAdapter&lt;/span&gt;&lt;/div&gt;" style="edgeStyle=orthogonalEdgeStyle;rounded=0;orthogonalLoop=1;jettySize=auto;html=1;" parent="1" source="HO9OGigF0msemIeN-Rik-5" edge="1">
                    <mxGeometry y="-30" relative="1" as="geometry">
                        <mxPoint x="-60" y="710" as="targetPoint"/>
                        <mxPoint as="offset"/>
                    </mxGeometry>
                </mxCell>
                <mxCell id="HO9OGigF0msemIeN-Rik-5" value="LocalSaveAccessToken" style="whiteSpace=wrap;html=1;aspect=fixed;" parent="1" vertex="1">
                    <mxGeometry x="200" y="610" width="200" height="200" as="geometry"/>
                </mxCell>
                <mxCell id="HO9OGigF0msemIeN-Rik-11" style="edgeStyle=orthogonalEdgeStyle;rounded=0;orthogonalLoop=1;jettySize=auto;html=1;entryX=1.02;entryY=0.4;entryDx=0;entryDy=0;entryPerimeter=0;" parent="1" source="HO9OGigF0msemIeN-Rik-7" target="HO9OGigF0msemIeN-Rik-5" edge="1">
                    <mxGeometry relative="1" as="geometry"/>
                </mxCell>
                <mxCell id="HO9OGigF0msemIeN-Rik-7" value="&lt;font color=&quot;#ffcce6&quot;&gt;SaveAccessToken&lt;/font&gt;" style="shape=parallelogram;perimeter=parallelogramPerimeter;whiteSpace=wrap;html=1;fixedSize=1;fillColor=#000066;strokeColor=#d6b656;gradientColor=none;" parent="1" vertex="1">
                    <mxGeometry x="490" y="640" width="230" height="100" as="geometry"/>
                </mxCell>
                <mxCell id="HO9OGigF0msemIeN-Rik-16" style="edgeStyle=orthogonalEdgeStyle;rounded=0;orthogonalLoop=1;jettySize=auto;html=1;entryX=0.75;entryY=0;entryDx=0;entryDy=0;" parent="1" source="HO9OGigF0msemIeN-Rik-13" target="HO9OGigF0msemIeN-Rik-15" edge="1">
                    <mxGeometry relative="1" as="geometry"/>
                </mxCell>
                <mxCell id="HO9OGigF0msemIeN-Rik-13" value="&lt;font color=&quot;#ffcce6&quot;&gt;SetStorage&lt;/font&gt;&lt;br&gt;&lt;br&gt;&lt;span class=&quot;mtk5&quot; style=&quot;color: rgb(129 , 161 , 193) ; font-family: &amp;#34;fira code&amp;#34; ; font-size: 14px&quot;&gt;export&lt;/span&gt;&lt;span class=&quot;mtk1&quot; style=&quot;color: rgb(216 , 222 , 233) ; font-family: &amp;#34;fira code&amp;#34; ; font-size: 14px&quot;&gt; &lt;/span&gt;&lt;span class=&quot;mtk5&quot; style=&quot;color: rgb(129 , 161 , 193) ; font-family: &amp;#34;fira code&amp;#34; ; font-size: 14px&quot;&gt;interface&lt;/span&gt;&lt;span class=&quot;mtk1&quot; style=&quot;color: rgb(216 , 222 , 233) ; font-family: &amp;#34;fira code&amp;#34; ; font-size: 14px&quot;&gt; &lt;/span&gt;&lt;span class=&quot;mtk7&quot; style=&quot;color: rgb(143 , 188 , 187) ; font-family: &amp;#34;fira code&amp;#34; ; font-size: 14px&quot;&gt;SetStorage&lt;/span&gt;&lt;span class=&quot;mtk1&quot; style=&quot;color: rgb(216 , 222 , 233) ; font-family: &amp;#34;fira code&amp;#34; ; font-size: 14px&quot;&gt; &lt;/span&gt;&lt;span class=&quot;mtk12&quot; style=&quot;color: rgb(236 , 239 , 244) ; font-family: &amp;#34;fira code&amp;#34; ; font-size: 14px&quot;&gt;{&lt;/span&gt;&lt;br style=&quot;color: rgb(216 , 222 , 233) ; font-family: &amp;#34;fira code&amp;#34; ; font-size: 14px&quot;&gt;&lt;span class=&quot;mtk1&quot; style=&quot;color: rgb(216 , 222 , 233) ; font-family: &amp;#34;fira code&amp;#34; ; font-size: 14px&quot;&gt;  &lt;/span&gt;&lt;span class=&quot;mtk8&quot; style=&quot;color: rgb(136 , 192 , 208) ; font-family: &amp;#34;fira code&amp;#34; ; font-size: 14px&quot;&gt;set&lt;/span&gt;&lt;span class=&quot;mtk12&quot; style=&quot;color: rgb(236 , 239 , 244) ; font-family: &amp;#34;fira code&amp;#34; ; font-size: 14px&quot;&gt;(&lt;/span&gt;&lt;span class=&quot;mtk1&quot; style=&quot;color: rgb(216 , 222 , 233) ; font-family: &amp;#34;fira code&amp;#34; ; font-size: 14px&quot;&gt;key&lt;/span&gt;&lt;span class=&quot;mtk5&quot; style=&quot;color: rgb(129 , 161 , 193) ; font-family: &amp;#34;fira code&amp;#34; ; font-size: 14px&quot;&gt;:&lt;/span&gt;&lt;span class=&quot;mtk1&quot; style=&quot;color: rgb(216 , 222 , 233) ; font-family: &amp;#34;fira code&amp;#34; ; font-size: 14px&quot;&gt; &lt;/span&gt;&lt;span class=&quot;mtk7&quot; style=&quot;color: rgb(143 , 188 , 187) ; font-family: &amp;#34;fira code&amp;#34; ; font-size: 14px&quot;&gt;string&lt;/span&gt;&lt;span class=&quot;mtk12&quot; style=&quot;color: rgb(236 , 239 , 244) ; font-family: &amp;#34;fira code&amp;#34; ; font-size: 14px&quot;&gt;,&lt;/span&gt;&lt;span class=&quot;mtk1&quot; style=&quot;color: rgb(216 , 222 , 233) ; font-family: &amp;#34;fira code&amp;#34; ; font-size: 14px&quot;&gt; value&lt;/span&gt;&lt;span class=&quot;mtk5&quot; style=&quot;color: rgb(129 , 161 , 193) ; font-family: &amp;#34;fira code&amp;#34; ; font-size: 14px&quot;&gt;:&lt;/span&gt;&lt;span class=&quot;mtk1&quot; style=&quot;color: rgb(216 , 222 , 233) ; font-family: &amp;#34;fira code&amp;#34; ; font-size: 14px&quot;&gt; &lt;/span&gt;&lt;span class=&quot;mtk7&quot; style=&quot;color: rgb(143 , 188 , 187) ; font-family: &amp;#34;fira code&amp;#34; ; font-size: 14px&quot;&gt;any&lt;/span&gt;&lt;span class=&quot;mtk12&quot; style=&quot;color: rgb(236 , 239 , 244) ; font-family: &amp;#34;fira code&amp;#34; ; font-size: 14px&quot;&gt;)&lt;/span&gt;&lt;span class=&quot;mtk5&quot; style=&quot;color: rgb(129 , 161 , 193) ; font-family: &amp;#34;fira code&amp;#34; ; font-size: 14px&quot;&gt;:&lt;/span&gt;&lt;span class=&quot;mtk1&quot; style=&quot;color: rgb(216 , 222 , 233) ; font-family: &amp;#34;fira code&amp;#34; ; font-size: 14px&quot;&gt; &lt;/span&gt;&lt;span class=&quot;mtk7&quot; style=&quot;color: rgb(143 , 188 , 187) ; font-family: &amp;#34;fira code&amp;#34; ; font-size: 14px&quot;&gt;Promise&lt;/span&gt;&lt;span class=&quot;mtk12&quot; style=&quot;color: rgb(236 , 239 , 244) ; font-family: &amp;#34;fira code&amp;#34; ; font-size: 14px&quot;&gt;&amp;lt;&lt;/span&gt;&lt;span class=&quot;mtk7&quot; style=&quot;color: rgb(143 , 188 , 187) ; font-family: &amp;#34;fira code&amp;#34; ; font-size: 14px&quot;&gt;void&lt;/span&gt;&lt;span class=&quot;mtk12&quot; style=&quot;color: rgb(236 , 239 , 244) ; font-family: &amp;#34;fira code&amp;#34; ; font-size: 14px&quot;&gt;&amp;gt;&lt;/span&gt;&lt;br style=&quot;color: rgb(216 , 222 , 233) ; font-family: &amp;#34;fira code&amp;#34; ; font-size: 14px&quot;&gt;&lt;span class=&quot;mtk12&quot; style=&quot;color: rgb(236 , 239 , 244) ; font-family: &amp;#34;fira code&amp;#34; ; font-size: 14px&quot;&gt;}&lt;/span&gt;" style="shape=parallelogram;perimeter=parallelogramPerimeter;whiteSpace=wrap;html=1;fixedSize=1;fillColor=#000066;strokeColor=#d6b656;gradientColor=none;" parent="1" vertex="1">
                    <mxGeometry x="-350" y="300" width="330" height="180" as="geometry"/>
                </mxCell>
                <mxCell id="HO9OGigF0msemIeN-Rik-15" value="&lt;div style=&quot;color: rgb(216 , 222 , 233) ; font-family: &amp;#34;fira code&amp;#34; , &amp;#34;menlo&amp;#34; , &amp;#34;monaco&amp;#34; , &amp;#34;courier new&amp;#34; , monospace ; font-size: 14px ; line-height: 21px&quot;&gt;&lt;span style=&quot;color: rgb(143 , 188 , 187)&quot;&gt;LocalStorageAdapter&lt;/span&gt;&lt;/div&gt;&lt;div style=&quot;color: rgb(216 , 222 , 233) ; font-family: &amp;#34;fira code&amp;#34; , &amp;#34;menlo&amp;#34; , &amp;#34;monaco&amp;#34; , &amp;#34;courier new&amp;#34; , monospace ; font-size: 14px ; line-height: 21px&quot;&gt;&lt;span style=&quot;color: #8fbcbb&quot;&gt;&lt;br&gt;&lt;/span&gt;&lt;/div&gt;&lt;div style=&quot;color: rgb(216 , 222 , 233) ; font-family: &amp;#34;fira code&amp;#34; , &amp;#34;menlo&amp;#34; , &amp;#34;monaco&amp;#34; , &amp;#34;courier new&amp;#34; , monospace ; font-size: 14px ; line-height: 21px&quot;&gt;&lt;div style=&quot;font-family: &amp;#34;fira code&amp;#34; , &amp;#34;menlo&amp;#34; , &amp;#34;monaco&amp;#34; , &amp;#34;courier new&amp;#34; , monospace ; line-height: 21px&quot;&gt;&lt;div&gt;&lt;span style=&quot;color: #81a1c1&quot;&gt;async&lt;/span&gt; &lt;span style=&quot;color: #88c0d0&quot;&gt;set&lt;/span&gt; &lt;span style=&quot;color: #eceff4&quot;&gt;(&lt;/span&gt;key&lt;span style=&quot;color: #81a1c1&quot;&gt;:&lt;/span&gt; &lt;span style=&quot;color: #8fbcbb&quot;&gt;string&lt;/span&gt;&lt;span style=&quot;color: #eceff4&quot;&gt;,&lt;/span&gt; value&lt;span style=&quot;color: #81a1c1&quot;&gt;:&lt;/span&gt; &lt;span style=&quot;color: #8fbcbb&quot;&gt;any&lt;/span&gt;&lt;span style=&quot;color: #eceff4&quot;&gt;)&lt;/span&gt;&lt;span style=&quot;color: #81a1c1&quot;&gt;:&lt;/span&gt; &lt;span style=&quot;color: #8fbcbb&quot;&gt;Promise&lt;/span&gt;&lt;span style=&quot;color: #eceff4&quot;&gt;&amp;lt;&lt;/span&gt;&lt;span style=&quot;color: #8fbcbb&quot;&gt;void&lt;/span&gt;&lt;span style=&quot;color: #eceff4&quot;&gt;&amp;gt;&lt;/span&gt; &lt;span style=&quot;color: #eceff4&quot;&gt;{&lt;/span&gt;&lt;/div&gt;&lt;div&gt;    localStorage&lt;span style=&quot;color: #eceff4&quot;&gt;.&lt;/span&gt;&lt;span style=&quot;color: #88c0d0&quot;&gt;setItem&lt;/span&gt;(key&lt;span style=&quot;color: #eceff4&quot;&gt;,&lt;/span&gt; value)&lt;/div&gt;&lt;div&gt;  &lt;span style=&quot;color: rgb(236 , 239 , 244)&quot;&gt;}&lt;/span&gt;&lt;/div&gt;&lt;/div&gt;&lt;/div&gt;" style="whiteSpace=wrap;html=1;aspect=fixed;" parent="1" vertex="1">
                    <mxGeometry x="-450" y="620" width="310" height="310" as="geometry"/>
                </mxCell>
            </root>
        </mxGraphModel>
    </diagram>
</mxfile>